<svg xmlns="http://www.w3.org/2000/svg" version="1.1" viewBox="-5.0 -10.0 110.0 135.0">
 <path d="m24.758 8.8633c1.2852 0 2.4453 0.51953 3.2852 1.3633 0.83984 0.83984 1.3633 2.0039 1.3633 3.2852 0 1.2852-0.51953 2.4453-1.3633 3.2852-0.5625 0.5625-1.2656 0.98047-2.0547 1.1953v9.1836c0.98828-0.33203 2.0625-0.55078 3.2266-0.64453 0.26562-9.2695 5.4648-15.238 12.074-17.895 2.6211-1.0547 5.457-1.582 8.2852-1.582s5.6641 0.52734 8.2852 1.582c6.6094 2.6562 11.809 8.625 12.074 17.895 5.3398 0.41797 8.8008 3.5664 10.383 7.5234 0.65234 1.6367 0.98047 3.4062 0.98047 5.1641s-0.32812 3.5273-0.98047 5.1641c-0.375 0.9375-0.85547 1.832-1.4414 2.6523h14.52c1.1016 0 2.1016 0.44922 2.8281 1.1719 0.72266 0.72656 1.1758 1.7266 1.1758 2.8281v37.895c0 1.1016-0.44922 2.1055-1.1758 2.8281-0.72656 0.72656-1.7266 1.1758-2.8281 1.1758l-86.789 0.003906c-1.1016 0-2.1016-0.44922-2.8281-1.1758-0.72266-0.72266-1.1719-1.7227-1.1719-2.8242v-37.895c0-1.1016 0.44922-2.1016 1.1758-2.8281 0.72266-0.72266 1.7266-1.1719 2.8281-1.1719h13.668c-0.58594-0.82031-1.0664-1.7148-1.4414-2.6523-0.65234-1.6367-0.98047-3.4023-0.98047-5.1641 0-1.7578 0.32812-3.5273 0.98047-5.1641 0.92187-2.3125 2.4883-4.3477 4.6953-5.7227v-10.34c-0.78906-0.21484-1.4922-0.63281-2.0547-1.1953-0.83984-0.83984-1.3633-2.0039-1.3633-3.2852s0.51953-2.4453 1.3633-3.2852c0.83594-0.84766 1.9961-1.3711 3.2812-1.3711zm15.461 46.633v4.3008h3.043v-4.3008zm-2.4609 4.3008v-4.3008h-3.2383v4.3008zm7.9688-4.3008v4.3008h3.043v-4.3008zm5.5039 0v4.3008h3.043v-4.3008zm5.5078 0v4.3008h3.043v-4.3008zm5.5039 0v4.3008h3.2344v-4.3008zm14.012-2.1992c-1.1992 0-2.2891 0.48828-3.0781 1.2734-0.78906 0.78906-1.2734 1.875-1.2734 3.0742s0.48828 2.2891 1.2734 3.0742c0.78906 0.78906 1.875 1.2734 3.0781 1.2734s2.2891-0.48828 3.0742-1.2734c0.78906-0.78906 1.2734-1.875 1.2734-3.0742s-0.48828-2.2891-1.2734-3.0742c-0.78516-0.78516-1.8711-1.2734-3.0742-1.2734zm1.3359 3.0156c-0.33984-0.33984-0.8125-0.55469-1.3359-0.55469-0.52344 0-0.99219 0.21094-1.3359 0.55469-0.33984 0.33984-0.55469 0.8125-0.55469 1.3359 0 0.52344 0.21094 0.99219 0.55469 1.3359 0.33984 0.33984 0.8125 0.55469 1.3359 0.55469 0.52344 0 0.99219-0.21094 1.3359-0.55469 0.33984-0.33984 0.55469-0.8125 0.55469-1.3359 0-0.52344-0.21484-0.99609-0.55469-1.3359zm9.6562-3.0156c-1.1992 0-2.2891 0.48828-3.0742 1.2734-0.78906 0.78906-1.2734 1.875-1.2734 3.0742s0.48828 2.2891 1.2734 3.0742c0.78906 0.78906 1.875 1.2734 3.0742 1.2734 1.1992 0 2.2891-0.48828 3.0781-1.2734 0.78906-0.78906 1.2734-1.875 1.2734-3.0742s-0.48828-2.2891-1.2734-3.0742c-0.78516-0.78516-1.875-1.2734-3.0781-1.2734zm1.3398 3.0156c-0.33984-0.33984-0.81641-0.55469-1.3359-0.55469s-0.99219 0.21094-1.3359 0.55469c-0.33984 0.33984-0.55469 0.8125-0.55469 1.3359 0 0.52344 0.21094 0.99219 0.55469 1.3359 0.33984 0.33984 0.81641 0.55469 1.3359 0.55469 0.52344 0 0.99609-0.21094 1.3359-0.55469 0.33984-0.33984 0.55469-0.8125 0.55469-1.3359-0.003906-0.52344-0.21484-0.99609-0.55469-1.3359zm-12.086-6.8086c-1.957 1.4961-4.5117 2.4297-7.6641 2.4531-0.039063 0.003907-0.082032 0.007813-0.12109 0.007813-0.67969 0-1.2305-0.55078-1.2305-1.2305v-1.2305h-35.82v1.2305c0 0.67969-0.55078 1.2305-1.2305 1.2305-0.039063 0-0.082032-0.003906-0.12109-0.007813-3.1523-0.023437-5.707-0.95703-7.6641-2.4531h-16.043c-0.42188 0-0.80859 0.17188-1.0859 0.45312-0.27734 0.28125-0.45312 0.66406-0.45312 1.0859v37.895c0 0.42188 0.17578 0.80859 0.45312 1.0859 0.27734 0.27734 0.66406 0.45312 1.0859 0.45312h86.789c0.42188 0 0.80859-0.17578 1.0859-0.45312 0.27734-0.27734 0.45312-0.66406 0.45312-1.0859v-37.895c0-0.42188-0.17578-0.80859-0.45312-1.0859-0.28125-0.28125-0.66406-0.45312-1.0859-0.45312zm-9.0195-2.4609v-19.328h0.003906c0-0.070313 0.003906-0.13672 0.015625-0.20312-0.011719-0.074219-0.023438-0.15234-0.023438-0.23047 0-8.5312-4.6211-13.984-10.539-16.363-2.3164-0.93359-4.8398-1.3984-7.3711-1.3984s-5.0547 0.46484-7.3711 1.3984c-5.9141 2.3789-10.539 7.832-10.539 16.363 0 0.078125-0.007812 0.15625-0.023438 0.23047 0.011719 0.066406 0.015626 0.13281 0.015626 0.20312h0.003906l0.011718 19.328zm-56.617 20.684v16.949h78.273v-16.949h-4.3867v12.176c0 0.67969-0.55078 1.2305-1.2305 1.2305l-3.832 0.003907c-0.67969 0-1.2305-0.55078-1.2305-1.2305v-12.18h-1.5391v12.176c0 0.67969-0.55078 1.2305-1.2305 1.2305h-3.8281c-0.67969 0-1.2305-0.55078-1.2305-1.2305l-0.003906-12.176h-4.3398v12.176c0 0.67969-0.55078 1.2305-1.2305 1.2305l-3.8242 0.003907c-0.67969 0-1.2305-0.55078-1.2305-1.2305l-0.003906-12.18h-1.5391v12.176c0 0.67969-0.55078 1.2305-1.2305 1.2305h-3.8281c-0.67969 0-1.2305-0.55078-1.2305-1.2305v-12.176h-4.3398v12.176c0 0.67969-0.55078 1.2305-1.2305 1.2305l-3.8281 0.003907c-0.67969 0-1.2305-0.55078-1.2305-1.2305v-12.18h-1.5391v12.176c0 0.67969-0.55078 1.2305-1.2305 1.2305h-3.8281c-0.67969 0-1.2305-0.55078-1.2305-1.2305v-12.176h-4.3398v12.176c0 0.67969-0.55078 1.2305-1.2305 1.2305l-3.8281 0.003907c-0.67969 0-1.2305-0.55078-1.2305-1.2305v-12.18h-1.5391v12.176c0 0.67969-0.55078 1.2305-1.2305 1.2305h-3.8281c-0.67969 0-1.2305-0.55078-1.2305-1.2305v-12.176zm71.422 0h-1.3672v10.945h1.3672zm-7.8281 0h-1.3672v10.945h1.3672zm-10.629 0h-1.3672v10.945h1.3672zm-7.832 0h-1.3672v10.945h1.3672zm-10.629 0h-1.3672v10.945h1.3672zm-7.8281 0h-1.3672v10.945h1.3672zm-10.629 0h-1.3672v10.945h1.3672zm-7.8281 0h-1.3672v10.945h1.3672zm-10.68 18.184c0 0.67969 0.55078 1.2305 1.2305 1.2305h80.734c0.67969 0 1.2305-0.55078 1.2305-1.2305v-19.414c0-0.67969-0.55078-1.2305-1.2305-1.2305h-80.734c-0.67969 0-1.2305 0.55078-1.2305 1.2305zm4.3516-32.613c-1.1992 0-2.2891 0.48828-3.0742 1.2734-0.78906 0.78906-1.2734 1.875-1.2734 3.0742s0.48828 2.2891 1.2734 3.0742c0.78516 0.78906 1.875 1.2734 3.0742 1.2734 1.1992 0 2.2891-0.48828 3.0781-1.2734 0.78906-0.78906 1.2734-1.875 1.2734-3.0742s-0.48828-2.2891-1.2734-3.0742c-0.78906-0.78516-1.8789-1.2734-3.0781-1.2734zm1.332 3.0156c-0.33984-0.33984-0.8125-0.55469-1.3359-0.55469-0.51953 0-0.99219 0.21094-1.3359 0.55469-0.33984 0.33984-0.55469 0.8125-0.55469 1.3359 0 0.52344 0.21094 0.99219 0.55469 1.3359 0.33984 0.33984 0.81641 0.55469 1.3359 0.55469 0.52344 0 0.99219-0.21094 1.3359-0.55469 0.33984-0.33984 0.55469-0.8125 0.55469-1.3359 0-0.52344-0.21094-0.99609-0.55469-1.3359zm9.6602-3.0156c-1.1992 0-2.2891 0.48828-3.0781 1.2734-0.78906 0.78906-1.2734 1.875-1.2734 3.0742s0.48828 2.2891 1.2734 3.0742c0.78906 0.78906 1.875 1.2734 3.0781 1.2734 1.1992 0 2.2891-0.48828 3.0742-1.2734 0.78906-0.78906 1.2734-1.875 1.2734-3.0742s-0.48828-2.2891-1.2734-3.0742c-0.78516-0.78516-1.875-1.2734-3.0742-1.2734zm1.3359 3.0156c-0.33984-0.33984-0.8125-0.55469-1.3359-0.55469-0.52344 0-0.99609 0.21094-1.3359 0.55469-0.33984 0.33984-0.55469 0.8125-0.55469 1.3359 0 0.52344 0.21094 0.99219 0.55469 1.3359 0.33984 0.33984 0.81641 0.55469 1.3359 0.55469 0.52344 0 0.99219-0.21094 1.3359-0.55469 0.33984-0.33984 0.55469-0.8125 0.55469-1.3359-0.003907-0.52344-0.21484-0.99609-0.55469-1.3359zm8.207-3.2773c-0.67969 0-1.2305 0.55078-1.2305 1.2305v6.7617c0 0.67969 0.55078 1.2305 1.2305 1.2305h33.418c0.67969 0 1.2305-0.55078 1.2305-1.2305v-6.7617c0-0.67969-0.55078-1.2305-1.2305-1.2305zm-12.176-9.5625c1.2344 3.0898 3.9297 5.5664 8.0898 5.9727v-20.445c-4.1602 0.41016-6.8555 2.8828-8.0898 5.9727-0.53125 1.332-0.80078 2.7891-0.80078 4.25 0 1.4609 0.26562 2.9219 0.80078 4.25zm48.832 5.9727c4.1602-0.41016 6.8555-2.8828 8.0938-5.9727 0.53125-1.332 0.80078-2.7891 0.80078-4.25 0-1.4609-0.26562-2.918-0.80078-4.25-1.2344-3.0898-3.9297-5.5664-8.0938-5.9727zm-43.641-37.48c-0.39453-0.39453-0.94141-0.64062-1.5469-0.64062-0.60156 0-1.1484 0.24219-1.543 0.64062-0.39453 0.39453-0.64062 0.94141-0.64062 1.543 0 0.60547 0.24609 1.1484 0.64062 1.5469 0.39453 0.39453 0.94141 0.64062 1.543 0.64062 0.60547 0 1.1484-0.24219 1.5469-0.64062 0.39453-0.39453 0.64062-0.94141 0.64062-1.5469 0-0.59766-0.24609-1.1445-0.64062-1.543z" fill-rule="evenodd"/>
<text x="0.0" y="117.5" font-size="5.0" font-weight="bold" font-family="Arbeit Regular, Helvetica, Arial-Unicode, Arial, Sans-serif" fill="#000000">Created by Abiyu agustian</text><text x="0.0" y="122.5" font-size="5.0" font-weight="bold" font-family="Arbeit Regular, Helvetica, Arial-Unicode, Arial, Sans-serif" fill="#000000">from Noun Project</text></svg>